<?xml version="1.0" encoding="UTF-8"?>
<svg id="Layer_1" data-name="Layer 1" xmlns="http://www.w3.org/2000/svg" viewBox="0 0 317.12 48.9">
  <defs>
    <style>
      .cls-1 {
        fill: #6f7070;
      }

      .cls-1, .cls-2 {
        fill-rule: evenodd;
        stroke-width: 0px;
      }

      .cls-2 {
        fill: #fb641f;
      }
    </style>
  </defs>
  <path id="Fill-3" class="cls-2" d="M31.42,38.3h1.2c1.3,0,2.5-.6,3.4-1.6s1.4-2.2,1.3-3.6c0-2.7-2.3-4.8-5-4.8h0c-1.3,0-2.5.6-3.4,1.6s-1.4,2.2-1.3,3.6c0,.3.1.6.1.9v.2c.1,0-4.3,4.8-4.3,4.8-.8.8-1.6,1.6-2.6,2.1-1.5,1-3.3,1.6-5.2,1.7h-.4c-5.4,0-9.7-4.3-9.9-9.7,0-1.4.2-2.8.7-4.1h0c0-.1-1.5-1.5-1.5-1.5-.7-.7-1.4-1.4-2-2.1h0c0-.1,0,.1,0,.1C.82,28.5.12,31.2.02,33.8c-.2,4.2,1.3,7.9,4.1,10.5l1.1,1.1c2.4,2.2,5.5,3.4,9,3.4s9.3-2.1,12.7-5.9l4.4-4.7h0l.1.1Z"/>
  <path id="Fill-1" class="cls-2" d="M42.52,21.8l-4.7-4.4v-.3c.2-.3.2-.7.2-1v-.2c0-1.3-.6-2.6-1.6-3.5s-2.2-1.4-3.5-1.3c-2.7.1-4.8,2.4-4.7,5.1,0,1.3.6,2.6,1.6,3.5s2.2,1.4,3.5,1.3c.3,0,.6-.1.9-.1h.2c0-.1,4.8,4.4,4.8,4.4.8.8,1.5,1.7,2.1,2.6,1,1.5,1.6,3.4,1.7,5.2,0,2.7-.8,5.3-2.6,7.2-1.8,2-4.3,3.1-7,3.2-1.4,0-2.7-.2-4.1-.7h-.1l-1.4,1.6c-.6.7-1.4,1.4-2.1,2h-.1l.2.2c2.4,1.4,5.1,2.2,7.8,2.3h.6c3.9,0,7.3-1.5,9.8-4.1l1.1-1.1c2.2-2.4,3.4-5.5,3.4-9-.2-4.8-2.4-9.5-6-12.9"/>
  <path id="Fill-8" class="cls-2" d="M17.42,10.5c-.3-.1-.7-.1-1-.1h-.2c-1.3,0-2.5.6-3.4,1.6s-1.4,2.2-1.3,3.6c.1,2.7,2.3,4.8,4.9,4.8h.1c1.3,0,2.5-.6,3.4-1.6s1.4-2.2,1.3-3.6c0-.3-.1-.6-.1-.9v-.2c-.1,0,4.3-4.8,4.3-4.8.8-.8,1.6-1.5,2.6-2.1,1.5-1,3.3-1.6,5.2-1.7,5.6-.2,10.1,4.1,10.3,9.7,0,1.4-.2,2.8-.7,4.1h0c0,.1,1.5,1.5,1.5,1.5.7.7,1.4,1.4,2,2.1h0c0,.1,0-.1,0-.1,1.4-2.5,2.1-5.2,2.2-7.8.2-4.1-1.3-7.9-4-10.5l-1.1-1.1c-2.4-2.2-5.5-3.4-8.9-3.4s-9.3,2.1-12.7,5.9l-4.4,4.7h-.2l.2-.1Z"/>
  <path id="Fill-6" class="cls-2" d="M6.12,27.4l4.7,4.4v.3c-.2.3-.2.7-.2,1v.2c0,1.3.6,2.6,1.6,3.5.9.9,2.1,1.3,3.3,1.3h.2c2.7,0,4.8-2.4,4.7-5.1,0-1.3-.6-2.6-1.6-3.5s-2.2-1.4-3.5-1.3c-.3,0-.6.1-.9.1h-.2c0,.1-4.8-4.4-4.8-4.4-.8-.8-1.5-1.7-2.1-2.6-1-1.5-1.6-3.4-1.7-5.2,0-2.7.8-5.3,2.6-7.2,1.8-2,4.3-3.1,7-3.2,1.4,0,2.8.2,4.1.7h.1l1.4-1.5c.6-.7,1.4-1.4,2.1-2h.1l-.1-.4C20.52,1.1,17.82.3,15.12.2h-.6C10.62.2,7.22,1.7,4.72,4.3l-1,1.2C1.52,7.9.32,11,.32,14.5c0,4.7,2.1,9.4,5.8,12.9"/>
  <polygon id="Fill-11" class="cls-1" points="82.62 21.6 73.62 9.1 73.52 9.1 66.92 9.1 66.92 39 72.82 39 72.82 18 81.92 30.4 83.12 30.4 92.32 18 92.32 39 98.32 39 98.32 9.1 91.72 9.1 82.62 21.6"/>
  <polygon id="Fill-13" class="cls-1" points="103.02 39 125.22 39 125.22 33.1 108.82 33.1 108.82 26.9 124.52 26.9 124.52 21.2 108.82 21.2 108.82 14.9 125.22 14.9 125.22 9.1 103.02 9.1 103.02 39"/>
  <polygon id="Fill-15" class="cls-1" points="153.52 9.1 129.32 9.1 129.32 14.6 138.42 14.6 138.42 39 144.42 39 144.42 14.6 153.52 14.6 153.52 9.1"/>
  <path id="Fill-17" class="cls-1" d="M170.82,27.7h-10.1l5-11.7,5.1,11.7ZM168.82,9.1h-6.2l-13,29.6v.2c-.1,0,6.2,0,6.2,0l2.5-5.5h14.8l2.5,5.5h6.4l-13.1-29.7h-.1v-.1Z"/>
  <path id="Fill-19" class="cls-1" d="M198.02,26.2h-10.4v-14.6h10.4c4.9,0,7.1,3.7,7.1,7.4s-.6,3.7-1.7,5c-1.4,1.5-3.1,2.2-5.4,2.2M198.02,9.1h-13v29.8h2.6v-10.1h10.4c4.6,0,9.7-3.1,9.7-9.9s-5-9.9-9.7-9.9"/>
  <polygon id="Fill-21" class="cls-1" points="232.92 23.1 215.02 23.1 215.02 9.1 212.32 9.1 212.32 39 215.02 39 215.02 25.6 232.92 25.6 232.92 39 235.52 39 235.52 9.1 232.92 9.1 232.92 23.1"/>
  <path id="Fill-23" class="cls-1" d="M260.92,29.2h-15.1l7.5-17.1,7.6,17.1ZM254.82,9.1h-2.7l-13.2,29.6v.2c-.1,0,2.7,0,2.7,0l3.1-7.2h17.2l3.2,7.2h2.9l-13.2-29.7h0v-.1Z"/>
  <path id="Fill-25" class="cls-1" d="M281.12,22.9h-.4c-5.2-1.1-8.6-2-8.6-5.5,0-5.6,7.6-5.7,8.5-5.7,3.2,0,6.5.5,8.6,3.9h.1c0,.1,2.1-1.2,2.1-1.2v-.2c-2.9-4.2-6.4-5.1-10.9-5.1s-7.4,1.2-9.2,3.2c-1.4,1.4-2,3.1-1.9,5.2,0,5.6,5.5,6.7,10.9,7.9,4.6.9,9.4,1.9,9.4,6.1s-6.2,6-9,6-8-1.7-9.6-5.2h-.1c0-.1-2.4,1.1-2.4,1.1v.2c2.5,4.9,7.9,6.5,12.1,6.5s11.6-.6,11.6-8.5c0-6.5-5.7-7.5-11.2-8.6"/>
  <polygon id="Fill-27" class="cls-1" points="298.52 36.3 298.52 25.1 315.72 25.1 315.72 22.6 298.52 22.6 298.52 11.6 316.62 11.6 316.62 9.1 295.92 9.1 295.92 39 317.12 39 317.12 36.3 298.52 36.3"/>
</svg>