<?xml version="1.0" encoding="UTF-8"?>
<svg id="Layer_1" data-name="Layer 1" xmlns="http://www.w3.org/2000/svg" width="323.6" height="50" version="1.1" viewBox="0 0 323.6 50">
  <defs>
    <style>
      .cls-1 {
        fill: #fff;
        fill-rule: evenodd;
        stroke-width: 0px;
      }
    </style>
  </defs>
  <path id="Fill-3" class="cls-1" d="M31.5,38.9c.3,0,.7,0,1,0h.2c1.3,0,2.5-.6,3.4-1.6s1.4-2.2,1.3-3.6c0-2.7-2.3-4.8-5-4.8h0c-1.3,0-2.5.6-3.4,1.6s-1.4,2.2-1.3,3.6c0,.3.1.6.1.9v.2c.1,0-4.3,4.8-4.3,4.8-.8.8-1.6,1.6-2.6,2.1-1.5,1-3.3,1.6-5.2,1.7h-.4c-5.4,0-9.7-4.3-9.9-9.7,0-1.4.2-2.8.7-4.1h0c0-.1-1.5-1.5-1.5-1.5-.7-.7-1.4-1.4-2-2.1h0c0-.1,0,.1,0,.1C.9,29.1.2,31.8.1,34.4c-.2,4.2,1.3,7.9,4.1,10.5l1.1,1.1c2.4,2.2,5.5,3.4,9,3.4s9.3-2.1,12.7-5.9l4.4-4.7h0Z"/>
  <path id="Fill-1" class="cls-1" d="M42.6,22.4l-4.7-4.4v-.3c.2-.3.2-.7.2-1v-.2c0-1.3-.6-2.6-1.6-3.5s-2.2-1.4-3.5-1.3c-2.7.1-4.8,2.4-4.7,5.1,0,1.3.6,2.6,1.6,3.5s2.2,1.4,3.5,1.3c.3,0,.6-.1.9-.1h.2c0-.1,4.8,4.4,4.8,4.4.8.8,1.5,1.7,2.1,2.6,1,1.5,1.6,3.4,1.7,5.2,0,2.7-.8,5.3-2.6,7.2-1.8,2-4.3,3.1-7,3.2-1.4,0-2.7-.2-4.1-.7h-.1l-1.4,1.6c-.6.7-1.4,1.4-2.1,2h-.1c0,0,.2.2.2.2,2.4,1.4,5.1,2.2,7.8,2.3h.6c3.9,0,7.3-1.5,9.8-4.1l1.1-1.1c2.2-2.4,3.4-5.5,3.4-9-.2-4.8-2.4-9.5-6-12.9"/>
  <path id="Fill-8" class="cls-1" d="M17.5,11.1c-.3-.1-.7-.1-1-.1h-.2c-1.3,0-2.5.6-3.4,1.6s-1.4,2.2-1.3,3.6c.1,2.7,2.3,4.8,4.9,4.8h.1c1.3,0,2.5-.6,3.4-1.6s1.4-2.2,1.3-3.6c0-.3-.1-.6-.1-.9v-.2c-.1,0,4.3-4.8,4.3-4.8.8-.8,1.6-1.5,2.6-2.1,1.5-1,3.3-1.6,5.2-1.7,5.6-.2,10.1,4.1,10.3,9.7,0,1.4-.2,2.8-.7,4.1h0c0,.1,1.5,1.5,1.5,1.5.7.7,1.4,1.4,2,2.1h0c0,.1,0-.1,0-.1,1.4-2.5,2.1-5.2,2.2-7.8.2-4.1-1.3-7.9-4-10.5l-1.1-1.1c-2.4-2.2-5.5-3.4-8.9-3.4s-9.3,2.1-12.7,5.9l-4.4,4.7h-.2Z"/>
  <path id="Fill-6" class="cls-1" d="M6.2,28l4.7,4.4v.3c-.2.3-.2.7-.2,1v.2c0,1.3.6,2.6,1.6,3.5.9.9,2.1,1.3,3.3,1.3h.2c2.7,0,4.8-2.4,4.7-5.1,0-1.3-.6-2.6-1.6-3.5s-2.2-1.4-3.5-1.3c-.3,0-.6.1-.9.1h-.2c0,.1-4.8-4.4-4.8-4.4-.8-.8-1.5-1.7-2.1-2.6-1-1.5-1.6-3.4-1.7-5.2,0-2.7.8-5.3,2.6-7.2,1.8-2,4.3-3.1,7-3.2,1.4,0,2.8.2,4.1.7h.1l1.4-1.5c.6-.7,1.4-1.4,2.1-2h.1c0,0-.1-.4-.1-.4-2.4-1.4-5.1-2.2-7.8-2.3h-.6c-3.9,0-7.3,1.5-9.8,4.1l-1,1.2C1.6,8.5.4,11.6.4,15.1c0,4.7,2.1,9.4,5.8,12.9"/>
  <polygon id="Fill-11" class="cls-1" points="82.7 22.2 73.7 9.7 73.6 9.7 67 9.7 67 39.6 72.9 39.6 72.9 18.6 82 31 83.2 31 92.4 18.6 92.4 39.6 98.4 39.6 98.4 9.7 91.8 9.7 82.7 22.2"/>
  <polygon id="Fill-13" class="cls-1" points="103.1 39.6 125.3 39.6 125.3 33.7 108.9 33.7 108.9 27.5 124.6 27.5 124.6 21.8 108.9 21.8 108.9 15.5 125.3 15.5 125.3 9.7 103.1 9.7 103.1 39.6"/>
  <polygon id="Fill-15" class="cls-1" points="153.6 9.7 129.4 9.7 129.4 15.2 138.5 15.2 138.5 39.6 144.5 39.6 144.5 15.2 153.6 15.2 153.6 9.7"/>
  <path id="Fill-17" class="cls-1" d="M170.9,28.3h-10.1l5-11.7,5.1,11.7ZM168.9,9.7h-6.2l-13,29.6v.2c-.1,0,6.2,0,6.2,0l2.5-5.5h14.8l2.5,5.5h6.4l-13.1-29.7h-.1Z"/>
  <path id="Fill-19" class="cls-1" d="M198.1,26.8h-10.4v-14.6h10.4c4.9,0,7.1,3.7,7.1,7.4s-.6,3.7-1.7,5c-1.4,1.5-3.1,2.2-5.4,2.2M198.1,9.7h-13v29.8h2.6v-10.1h10.4c4.6,0,9.7-3.1,9.7-9.9,0-6.9-5-9.9-9.7-9.9"/>
  <polygon id="Fill-21" class="cls-1" points="233 23.7 215.1 23.7 215.1 9.7 212.4 9.7 212.4 39.6 215.1 39.6 215.1 26.2 233 26.2 233 39.6 235.6 39.6 235.6 9.7 233 9.7 233 23.7"/>
  <path id="Fill-23" class="cls-1" d="M261,29.8h-15.1l7.5-17.1,7.6,17.1ZM254.9,9.7h-2.7l-13.2,29.6v.2c-.1,0,2.7,0,2.7,0l3.1-7.2h17.2l3.2,7.2h2.9l-13.2-29.7h0Z"/>
  <path id="Fill-25" class="cls-1" d="M281.2,23.5h-.4c-5.2-1.1-8.6-2-8.6-5.5,0-5.6,7.6-5.7,8.5-5.7,3.2,0,6.5.5,8.6,3.9h.1c0,.1,2.1-1.2,2.1-1.2v-.2c-2.9-4.2-6.4-5.1-10.9-5.1s-7.4,1.2-9.2,3.2c-1.4,1.4-2,3.1-1.9,5.2,0,5.6,5.5,6.7,10.9,7.9,4.6.9,9.4,1.9,9.4,6.1s-6.2,6-9,6-8-1.7-9.6-5.2h-.1c0-.1-2.4,1.1-2.4,1.1v.2c2.5,4.9,7.9,6.5,12.1,6.5s11.6-.6,11.6-8.5c0-6.5-5.7-7.5-11.2-8.6"/>
  <polygon id="Fill-27" class="cls-1" points="298.6 36.9 298.6 25.7 315.8 25.7 315.8 23.2 298.6 23.2 298.6 12.2 316.7 12.2 316.7 9.7 296 9.7 296 39.6 317.2 39.6 317.2 36.9 298.6 36.9"/>
</svg>